<svg width="160" height="160" viewBox="0 0 160 160" fill="none" xmlns="http://www.w3.org/2000/svg">
  <rect width="160" height="160" rx="40" fill="#F7FAFF"/>
  <rect x="18" y="18" width="124" height="124" rx="34" fill="#FFFFFF"/>
  <path d="M36 142c5-22 19-34 44-34 23 0 37 12 44 34H36z" fill="#4A86D8"/>
  <rect x="61" y="98" width="38" height="18" rx="9" fill="#D89A74"/>
  <circle cx="80" cy="68" r="28" fill="#E2B18F"/>
  <path d="M54 68c2-18 12-31 30-31 15 0 25 8 31 20-13-2-24 0-32 5-7 4-17 6-29 6z" fill="#3A2E2B"/>
  <path d="M55 59c4-9 12-16 24-20-10-3-24 1-31 15l7 5z" fill="#3A2E2B"/>
  <circle cx="69" cy="71" r="3" fill="#2F211D"/>
  <circle cx="91" cy="71" r="3" fill="#2F211D"/>
  <path d="M73 84c3 3 11 3 14 0" stroke="#A76D58" stroke-width="3" stroke-linecap="round"/>
</svg>
