<svg width="160" height="160" viewBox="0 0 160 160" fill="none" xmlns="http://www.w3.org/2000/svg">
  <rect width="160" height="160" rx="40" fill="#F9FBF7"/>
  <rect x="18" y="18" width="124" height="124" rx="34" fill="#FFFFFF"/>
  <path d="M38 142c4-23 18-34 42-34 24 0 38 11 42 34H38z" fill="#B8CA7E"/>
  <rect x="61" y="98" width="38" height="18" rx="9" fill="#C78E70"/>
  <circle cx="80" cy="68" r="28" fill="#D79C76"/>
  <circle cx="57" cy="56" r="14" fill="#6A493E"/>
  <circle cx="80" cy="48" r="18" fill="#6A493E"/>
  <circle cx="102" cy="56" r="14" fill="#6A493E"/>
  <circle cx="53" cy="79" r="11" fill="#6A493E"/>
  <circle cx="107" cy="79" r="11" fill="#6A493E"/>
  <circle cx="69" cy="71" r="3" fill="#3F2920"/>
  <circle cx="91" cy="71" r="3" fill="#3F2920"/>
  <path d="M72 84c4 3 12 3 16 0" stroke="#A36853" stroke-width="3" stroke-linecap="round"/>
</svg>
