<svg xmlns="http://www.w3.org/2000/svg" width="120" height="120" viewBox="0 0 120 120">
  <defs>
    <linearGradient id="bg" x1="0" y1="0" x2="1" y2="1">
      <stop offset="0%" stop-color="#e2e8f0"/>
      <stop offset="100%" stop-color="#cbd5e1"/>
    </linearGradient>
    <linearGradient id="panel" x1="0" y1="0" x2="1" y2="1">
      <stop offset="0%" stop-color="#f8fafc"/>
      <stop offset="100%" stop-color="#e2e8f0"/>
    </linearGradient>
  </defs>
  <rect width="120" height="120" rx="22" fill="url(#bg)"/>
  <rect x="10" y="10" width="100" height="100" rx="18" fill="url(#panel)" stroke="#94a3b8" stroke-opacity="0.35"/>
  <rect x="18" y="18" width="84" height="36" rx="12" fill="#dbeafe"/>
  <path d="M37 92c6-13 14-20 23-20s17 7 23 20" fill="#334155"/>
  <path d="M46 76c4 9 9 13 14 13s10-4 14-13l-3-8H49Z" fill="#0f172a"/>
  <path d="M52 77h16l-4 17h-8Z" fill="#f8fafc"/>
  <path d="M47 45c0-10 6-18 13-18s13 8 13 18-6 18-13 18-13-8-13-18Z" fill="#f1c8a6"/>
  <path d="M46 43c1-12 7-19 14-19 8 0 14 7 14 19-2-3-4-5-7-6-3 3-8 5-21 6Z" fill="#334155"/>
  <rect x="50" y="87" width="20" height="3" rx="1.5" fill="#94a3b8"/>
</svg>
